<svg xmlns="http://www.w3.org/2000/svg" width="32" height="32" fill="none" viewBox="0 0 32 32">
  <path fill="#fff" d="M0 16C0 2.824 2.824 0 16 0s16 2.824 16 16-2.824 16-16 16S0 29.176 0 16Z"/>
  <path fill="#343A40" d="M4.5 11.559h3.392c.95 0 1.675.221 2.174.664.507.444.761 1.046.761 1.809 0 .532-.138.957-.415 1.277-.268.31-.655.536-1.163.678v.08c.6.141 1.061.39 1.384.744.333.355.499.847.499 1.476 0 .78-.259 1.4-.775 1.862-.508.46-1.223.691-2.146.691H4.5v-9.28Zm3.074 7.885c.498 0 .863-.08 1.093-.24.231-.159.347-.451.347-.877v-.386c0-.425-.116-.718-.347-.877-.23-.16-.595-.24-1.093-.24H6.52v2.62h1.053Zm-.263-3.95c.489 0 .844-.075 1.066-.225.221-.16.332-.444.332-.851v-.4c0-.407-.11-.686-.332-.837-.222-.15-.577-.226-1.066-.226h-.79v2.54h.79Zm9.866 4.096h-.097a2.673 2.673 0 0 1-.775 1.024c-.323.258-.771.386-1.343.386-.397 0-.762-.07-1.094-.213a2.26 2.26 0 0 1-.845-.651c-.23-.293-.415-.665-.553-1.117-.13-.452-.194-.989-.194-1.61 0-.62.064-1.156.194-1.608.138-.453.322-.825.553-1.117.24-.293.522-.51.845-.652a2.758 2.758 0 0 1 1.094-.213c.286 0 .54.036.761.106a1.976 1.976 0 0 1 1.025.745c.129.169.24.355.332.559h.097V11h2.049v9.84h-2.05v-1.25Zm-1.33-.12c.36 0 .67-.083.928-.252.268-.168.402-.434.402-.798V16.4c0-.364-.134-.63-.402-.798a1.662 1.662 0 0 0-.927-.253c-.462 0-.817.138-1.066.413-.25.266-.374.638-.374 1.117v1.064c0 .478.124.855.374 1.13.249.266.604.399 1.066.399Zm9.563-2.513h-2.437v3.883h-2.091v-9.28h2.09v3.763h2.437V11.56H27.5v9.281h-2.09v-3.883Z"/>
</svg>
