<svg width="32" height="32" viewBox="0 0 32 32" fill="none" xmlns="http://www.w3.org/2000/svg">
<path d="M0 16C0 2.824 2.824 0 16 0C29.176 0 32 2.824 32 16C32 29.176 29.176 32 16 32C2.824 32 0 29.176 0 16Z" fill="#F5F5F5"/>
<path d="M4.5 11.5585H7.89209C8.8428 11.5585 9.56736 11.7801 10.0658 12.2234C10.5735 12.6667 10.8273 13.2695 10.8273 14.0319C10.8273 14.5638 10.6888 14.9894 10.4119 15.3085C10.1442 15.6188 9.75658 15.8449 9.24892 15.9867V16.0665C9.84888 16.2083 10.3104 16.4566 10.6334 16.8112C10.9657 17.1658 11.1319 17.6578 11.1319 18.2872C11.1319 19.0674 10.8734 19.6879 10.3565 20.1489C9.84888 20.6099 9.13355 20.8404 8.21053 20.8404H4.5V11.5585ZM7.57365 19.4441C8.07208 19.4441 8.43667 19.3644 8.66742 19.2048C8.89818 19.0452 9.01355 18.7527 9.01355 18.3271V17.9415C9.01355 17.516 8.89818 17.2234 8.66742 17.0638C8.43667 16.9043 8.07208 16.8245 7.57365 16.8245H6.52141V19.4441H7.57365ZM7.31059 15.4947C7.79979 15.4947 8.15515 15.4193 8.37667 15.2686C8.5982 15.109 8.70896 14.8254 8.70896 14.4176V14.0186C8.70896 13.6108 8.5982 13.3316 8.37667 13.1809C8.15515 13.0301 7.79979 12.9548 7.31059 12.9548H6.52141V15.4947H7.31059Z" fill="black"/>
<path d="M17.1768 19.5904H17.0799C16.8953 20.0071 16.6369 20.3484 16.3046 20.6144C15.9815 20.8715 15.5339 21 14.9616 21C14.5647 21 14.2001 20.9291 13.8678 20.7872C13.5448 20.6454 13.2633 20.4282 13.0233 20.1356C12.7925 19.8431 12.6079 19.4707 12.4695 19.0186C12.3402 18.5665 12.2756 18.0301 12.2756 17.4096C12.2756 16.789 12.3402 16.2527 12.4695 15.8005C12.6079 15.3484 12.7925 14.9761 13.0233 14.6835C13.2633 14.391 13.5448 14.1738 13.8678 14.0319C14.2001 13.8901 14.5647 13.8191 14.9616 13.8191C15.2477 13.8191 15.5016 13.8546 15.7231 13.9255C15.9446 13.9965 16.1385 14.094 16.3046 14.2181C16.48 14.3422 16.6277 14.4929 16.7476 14.6702C16.8769 14.8387 16.9876 15.0248 17.0799 15.2287H17.1768V11H19.2259V20.8404H17.1768V19.5904ZM15.8477 19.4707C16.2077 19.4707 16.5169 19.3865 16.7753 19.2181C17.043 19.0496 17.1768 18.7837 17.1768 18.4202V16.3989C17.1768 16.0355 17.043 15.7695 16.7753 15.6011C16.5169 15.4326 16.2077 15.3484 15.8477 15.3484C15.3862 15.3484 15.0308 15.4858 14.7816 15.7606C14.5324 16.0266 14.4078 16.3989 14.4078 16.8777V17.9415C14.4078 18.4202 14.5324 18.797 14.7816 19.0718C15.0308 19.3378 15.3862 19.4707 15.8477 19.4707Z" fill="black"/>
<path d="M25.4094 16.9574H22.9726V20.8404H20.882V11.5585H22.9726V15.3218H25.4094V11.5585H27.5V20.8404H25.4094V16.9574Z" fill="black"/>
</svg>
